<?xml version="1.0" encoding="utf-8"?>
<svg viewBox="112.5 139.746 150 95.234" xmlns="http://www.w3.org/2000/svg">
  <defs>
    <clipPath id="566f602c99">
      <path d="M 112.5 173 L 134 173 L 134 198 L 112.5 198 Z M 112.5 173 " clip-rule="nonzero"/>
    </clipPath>
    <clipPath id="6c1d0298cb">
      <path d="M 244 179 L 262.5 179 L 262.5 198 L 244 198 Z M 244 179 " clip-rule="nonzero"/>
    </clipPath>
    <clipPath id="2f68d13b50">
      <path d="M 140 139.363281 L 214 139.363281 L 214 204 L 140 204 Z M 140 139.363281 " clip-rule="nonzero"/>
    </clipPath>
    <clipPath id="a6b2ffd550">
      <path d="M 248 209 L 262.5 209 L 262.5 228 L 248 228 Z M 248 209 " clip-rule="nonzero"/>
    </clipPath>
    <clipPath id="31b977e9b3">
      <path d="M 112.5 202 L 131 202 L 131 228 L 112.5 228 Z M 112.5 202 " clip-rule="nonzero"/>
    </clipPath>
  </defs>
  <g clip-path="url(#566f602c99)">
    <path fill="#ffffff" d="M 124.222656 195.359375 C 119.03125 195.191406 115.179688 190.449219 115.179688 185.574219 C 115.179688 180.726562 119.0625 175.953125 124.222656 175.789062 L 124.222656 173.449219 C 117.625 173.648438 112.5 179.128906 112.5 185.574219 C 112.5 192.019531 117.589844 197.527344 124.222656 197.699219 Z M 132.296875 192.386719 C 132.160156 192.253906 132.058594 192.1875 131.925781 192.1875 C 131.824219 192.1875 131.695312 192.21875 131.558594 192.351562 C 130.050781 193.921875 127.773438 195.257812 124.859375 195.359375 L 124.859375 197.699219 C 128.007812 197.597656 131.222656 196.292969 133.269531 194.257812 C 133.570312 193.957031 133.570312 193.789062 133.296875 193.453125 Z M 133.269531 176.886719 C 131.257812 174.882812 127.972656 173.546875 124.859375 173.449219 L 124.859375 175.789062 C 127.707031 175.886719 130.085938 177.222656 131.492188 178.726562 C 131.625 178.859375 131.757812 178.925781 131.859375 178.925781 C 131.996094 178.925781 132.125 178.859375 132.261719 178.691406 L 133.234375 177.621094 C 133.5 177.324219 133.535156 177.15625 133.269531 176.886719 Z M 133.269531 176.886719 " fill-opacity="1" fill-rule="nonzero"/>
  </g>
  <path fill="#ffffff" d="M 220.429688 180.960938 C 220.027344 180.398438 219.890625 180.261719 219.257812 180.261719 L 218.421875 180.261719 C 218.050781 180.261719 217.914062 180.398438 217.914062 180.796875 L 217.914062 196.726562 C 217.914062 197.128906 218.050781 197.261719 218.421875 197.261719 L 219.925781 197.261719 C 220.296875 197.261719 220.429688 197.128906 220.429688 196.726562 Z M 221.066406 185.636719 C 222.238281 183.332031 224.414062 182.367188 226.859375 182.367188 C 227.261719 182.367188 227.363281 182.265625 227.460938 181.867188 L 227.664062 180.363281 C 227.734375 180.027344 227.664062 179.894531 227.195312 179.894531 C 224.75 179.894531 222.539062 180.664062 221.066406 182.703125 Z M 221.066406 185.636719 " fill-opacity="1" fill-rule="nonzero"/>
  <path fill="#ffffff" d="M 241.464844 196.828125 C 241.765625 196.664062 241.800781 196.527344 241.699219 196.191406 L 241.5 195.125 C 241.429688 194.824219 241.328125 194.722656 241.195312 194.722656 C 241.128906 194.722656 240.992188 194.757812 240.828125 194.859375 C 239.988281 195.292969 239.453125 195.359375 238.515625 195.359375 C 235.839844 195.359375 234.664062 193.921875 234.664062 190.011719 L 234.664062 182.96875 L 232.183594 182.96875 L 232.183594 190.21875 C 232.183594 194.859375 233.828125 197.628906 238.25 197.628906 C 238.683594 197.628906 240.125 197.628906 241.464844 196.828125 Z M 241.230469 180.796875 C 241.230469 180.363281 241.09375 180.261719 240.726562 180.261719 L 234.664062 180.261719 L 234.664062 176.824219 C 234.664062 176.421875 234.566406 176.289062 234.164062 176.289062 L 232.6875 176.289062 C 232.289062 176.289062 232.183594 176.421875 232.183594 176.824219 L 232.183594 180.261719 L 230.542969 180.261719 C 230.140625 180.261719 230.007812 180.363281 230.007812 180.796875 L 230.007812 181.796875 C 230.007812 182.199219 230.140625 182.332031 230.542969 182.332031 L 240.726562 182.332031 C 241.128906 182.332031 241.230469 182.199219 241.230469 181.796875 Z M 241.230469 180.796875 " fill-opacity="1" fill-rule="nonzero"/>
  <g clip-path="url(#6c1d0298cb)">
    <path fill="#ffffff" d="M 253.222656 195.394531 C 249.871094 195.226562 247.257812 192.289062 247.257812 188.777344 C 247.257812 185.136719 250.003906 182.332031 253.222656 182.167969 L 253.222656 179.894531 C 248.527344 180.0625 244.746094 184.003906 244.746094 188.777344 C 244.746094 193.488281 248.5 197.464844 253.222656 197.628906 Z M 253.886719 182.167969 C 257.273438 182.367188 259.886719 185.238281 259.886719 188.777344 C 259.886719 192.289062 257.273438 195.191406 253.886719 195.394531 L 253.886719 197.628906 C 258.710938 197.429688 262.363281 193.453125 262.363281 188.777344 C 262.363281 184.066406 258.679688 180.0625 253.886719 179.894531 Z M 253.886719 182.167969 " fill-opacity="1" fill-rule="nonzero"/>
  </g>
  <g clip-path="url(#2f68d13b50)">
    <path fill="#ffffff" d="M 176.996094 166.28125 L 198.183594 203.828125 L 213.15625 203.828125 L 176.996094 139.746094 L 140.96875 203.828125 L 155.945312 203.828125 Z M 176.996094 166.28125 " fill-opacity="1" fill-rule="nonzero"/>
  </g>
  <path fill="#ffffff" d="M 176.996094 194.839844 L 161.738281 222.09375 L 192.394531 222.09375 Z M 176.996094 194.839844 " fill-opacity="1" fill-rule="nonzero"/>
  <path fill="#ffffff" d="M 216.5 168.988281 C 216.5 169.257812 216.585938 169.339844 216.851562 169.339844 L 218.175781 169.339844 C 218.441406 169.339844 218.523438 169.257812 218.523438 168.988281 L 218.523438 158.003906 C 218.523438 157.734375 218.460938 157.652344 218.175781 157.652344 L 216.851562 157.652344 C 216.585938 157.652344 216.5 157.734375 216.5 158.003906 Z M 216.5 168.988281 " fill-opacity="1" fill-rule="nonzero"/>
  <path fill="#ffffff" d="M 226.015625 159.339844 C 228.441406 159.339844 229.898438 161.308594 229.898438 163.496094 C 229.898438 165.667969 228.441406 167.652344 226.015625 167.652344 L 223.785156 167.652344 L 223.785156 169.339844 L 226.03125 169.339844 C 229.328125 169.339844 231.941406 166.820312 231.941406 163.496094 C 231.941406 160.171875 229.328125 157.652344 226.03125 157.652344 L 223.785156 157.652344 L 223.785156 159.339844 Z M 223.5 169.339844 L 223.5 157.652344 L 221.828125 157.652344 C 221.558594 157.652344 221.472656 157.734375 221.472656 158.003906 L 221.472656 168.988281 C 221.472656 169.257812 221.558594 169.339844 221.828125 169.339844 Z M 223.5 169.339844 " fill-opacity="1" fill-rule="nonzero"/>
  <path fill="#ffffff" d="M 241.109375 167.722656 C 241.054688 167.652344 241.007812 167.621094 240.953125 167.621094 C 240.90625 167.621094 240.855469 167.652344 240.789062 167.707031 C 240 168.304688 238.925781 168.605469 238.042969 168.605469 C 236.132812 168.605469 234.59375 167.070312 234.59375 165.230469 L 234.59375 164.964844 C 234.59375 163.230469 235.914062 161.675781 237.6875 161.542969 L 237.6875 160.65625 C 235.347656 160.757812 233.519531 162.777344 233.519531 165.101562 C 233.519531 167.535156 235.464844 169.523438 237.988281 169.523438 C 239.214844 169.523438 240.589844 169.125 241.355469 168.355469 C 241.472656 168.253906 241.472656 168.152344 241.375 168.023438 Z M 242.046875 165.25 C 242.046875 162.8125 240.535156 160.726562 238.023438 160.65625 L 238.023438 161.542969 C 239.851562 161.644531 240.9375 163.242188 240.972656 164.730469 L 234.957031 164.730469 C 234.894531 164.929688 234.894531 165.285156 234.957031 165.484375 L 241.828125 165.484375 C 242.011719 165.484375 242.046875 165.417969 242.046875 165.25 Z M 239.398438 157.316406 C 239.34375 157.234375 239.296875 157.199219 239.230469 157.199219 C 239.199219 157.199219 239.164062 157.214844 239.113281 157.269531 L 237.019531 159.457031 C 236.867188 159.605469 236.9375 159.6875 237.070312 159.6875 L 237.621094 159.6875 C 237.777344 159.6875 237.90625 159.640625 238.007812 159.539062 L 239.632812 158.015625 C 239.734375 157.917969 239.734375 157.851562 239.664062 157.734375 Z M 239.398438 157.316406 " fill-opacity="1" fill-rule="nonzero"/>
  <path fill="#ffffff" d="M 249.964844 169.125 C 250.035156 169.257812 250.117188 169.339844 250.25 169.339844 L 250.789062 169.339844 C 250.953125 169.339844 251 169.277344 251 169.105469 L 251 164.648438 C 251 161.859375 250.164062 160.65625 247.488281 160.65625 C 246.183594 160.65625 244.820312 160.910156 244.621094 160.957031 C 244.4375 161.007812 244.390625 161.089844 244.4375 161.257812 L 244.539062 161.644531 C 244.574219 161.792969 244.609375 161.878906 244.722656 161.878906 C 244.738281 161.878906 244.773438 161.878906 244.820312 161.859375 C 245.476562 161.726562 246.347656 161.574219 247.453125 161.574219 C 249.296875 161.574219 249.964844 162.410156 249.964844 164.683594 Z M 249.644531 164.546875 C 248.894531 164.265625 247.957031 164.046875 247.167969 164.046875 C 245.039062 164.046875 243.683594 164.929688 243.683594 166.769531 C 243.683594 168.523438 245.039062 169.523438 246.683594 169.523438 C 247.667969 169.523438 248.808594 169.1875 249.644531 168.355469 L 249.644531 167.417969 C 249.042969 168.105469 247.988281 168.6875 246.984375 168.6875 C 245.558594 168.6875 244.722656 167.921875 244.722656 166.769531 C 244.722656 165.5 245.660156 164.847656 247.367188 164.847656 C 248.1875 164.847656 248.925781 165.066406 249.644531 165.367188 Z M 249.644531 164.546875 " fill-opacity="1" fill-rule="nonzero"/>
  <path fill="#ffffff" d="M 255.71875 158.003906 C 255.71875 157.734375 255.632812 157.652344 255.363281 157.652344 L 254.042969 157.652344 C 253.773438 157.652344 253.691406 157.734375 253.691406 158.003906 L 253.691406 168.988281 C 253.691406 169.257812 253.773438 169.339844 254.042969 169.339844 L 255.71875 169.339844 Z M 260.90625 169.339844 C 261.179688 169.339844 261.261719 169.257812 261.261719 168.988281 L 261.261719 167.972656 C 261.261719 167.6875 261.179688 167.621094 260.90625 167.621094 L 256 167.621094 L 256 169.339844 Z M 260.90625 169.339844 " fill-opacity="1" fill-rule="nonzero"/>
  <path fill="#ffffff" d="M 221.203125 225.796875 C 221.203125 229.804688 219.859375 232.742188 215.539062 232.742188 C 212.65625 232.742188 210.917969 231.976562 209.878906 231.605469 C 209.746094 231.539062 209.679688 231.507812 209.578125 231.507812 C 209.445312 231.507812 209.375 231.640625 209.308594 231.90625 L 208.972656 233.175781 C 208.871094 233.546875 208.941406 233.644531 209.273438 233.777344 C 209.980469 234.046875 212.257812 234.980469 215.90625 234.980469 C 221.097656 234.980469 223.714844 231.941406 223.714844 225.53125 L 223.714844 210.265625 C 223.714844 209.867188 223.578125 209.730469 223.207031 209.730469 L 222.039062 209.730469 C 221.667969 209.730469 221.367188 209.964844 221.203125 210.332031 Z M 220.566406 221.320312 C 219.457031 223.757812 217.417969 224.824219 215.507812 224.824219 C 211.992188 224.824219 209.78125 221.65625 209.78125 218.246094 C 209.78125 214.539062 211.992188 211.601562 215.507812 211.601562 C 217.28125 211.601562 219.320312 212.5 220.566406 215.105469 L 220.566406 211.964844 C 219.390625 210.464844 217.417969 209.359375 215.003906 209.359375 C 210.316406 209.359375 207.265625 213.40625 207.265625 218.246094 C 207.265625 223.125 210.28125 227.097656 215.003906 227.097656 C 217.546875 227.097656 219.390625 225.929688 220.566406 224.324219 Z M 220.566406 221.320312 " fill-opacity="1" fill-rule="nonzero"/>
  <path fill="#ffffff" d="M 243.507812 223.257812 C 243.40625 223.125 243.304688 223.054688 243.171875 223.054688 C 243.070312 223.054688 242.933594 223.125 242.769531 223.226562 C 241.160156 224.390625 239.121094 224.894531 237.511719 224.894531 C 233.894531 224.894531 231.046875 222.019531 231.046875 218.480469 L 231.046875 218.015625 C 231.046875 214.640625 233.492188 211.734375 236.808594 211.464844 L 236.808594 209.359375 C 232.121094 209.5625 228.46875 213.605469 228.46875 218.246094 C 228.46875 223.125 232.355469 227.097656 237.410156 227.097656 C 239.855469 227.097656 242.605469 226.296875 244.144531 224.761719 C 244.410156 224.527344 244.378906 224.324219 244.144531 224.027344 Z M 245.515625 218.582031 C 245.515625 213.707031 242.570312 209.496094 237.480469 209.359375 L 237.480469 211.464844 C 240.894531 211.664062 242.835938 214.675781 242.933594 217.378906 L 231.75 217.378906 C 231.617188 217.878906 231.617188 218.644531 231.75 219.117188 L 245.015625 219.117188 C 245.449219 219.117188 245.515625 218.980469 245.515625 218.582031 Z M 245.515625 218.582031 " fill-opacity="1" fill-rule="nonzero"/>
  <g clip-path="url(#a6b2ffd550)">
    <path fill="#ffffff" d="M 255.363281 219.28125 C 258.414062 219.714844 260.089844 220.484375 260.089844 221.957031 C 260.089844 223.589844 258.816406 225.027344 255.695312 225.0625 L 255.695312 227.097656 C 260.019531 227.097656 262.5 224.824219 262.5 221.820312 C 262.5 218.582031 259.28125 217.511719 255.964844 217.046875 C 252.917969 216.609375 251.242188 216.277344 251.242188 214.441406 C 251.242188 212.035156 253.488281 211.402344 255.496094 211.402344 L 255.496094 209.359375 C 252.179688 209.359375 248.867188 210.765625 248.867188 214.570312 C 248.867188 218.082031 252.046875 218.851562 255.363281 219.28125 Z M 248.730469 224.960938 C 250.878906 226.394531 253.253906 226.996094 255.0625 227.097656 L 255.0625 225.0625 C 253.019531 224.960938 251.144531 224.125 249.835938 223.191406 C 249.703125 223.089844 249.570312 223.027344 249.46875 223.027344 C 249.304688 223.027344 249.203125 223.191406 249.101562 223.390625 L 248.632812 224.226562 C 248.429688 224.589844 248.429688 224.761719 248.730469 224.960938 Z M 260.691406 213.003906 C 260.824219 213.105469 260.925781 213.136719 261.027344 213.136719 C 261.191406 213.136719 261.328125 213.003906 261.425781 212.769531 L 261.863281 211.964844 C 262.027344 211.664062 262.09375 211.464844 261.691406 211.230469 C 259.753906 210.03125 257.742188 209.496094 256.132812 209.394531 L 256.132812 211.402344 C 257.640625 211.464844 259.152344 212.035156 260.691406 213.003906 Z M 260.691406 213.003906 " fill-opacity="1" fill-rule="nonzero"/>
  </g>
  <g clip-path="url(#31b977e9b3)">
    <path fill="#ffffff" d="M 122.414062 213.804688 C 118.726562 213.335938 115.613281 212.636719 115.613281 209.894531 C 115.613281 208.226562 116.6875 205.492188 121.238281 205.355469 L 121.238281 202.984375 C 114.945312 203.050781 113.035156 207.460938 113.035156 209.964844 C 113.035156 214.40625 117.289062 215.511719 120.9375 216.011719 C 125.328125 216.609375 127.839844 217.511719 127.839844 220.285156 C 127.839844 223.554688 124.996094 224.695312 121.746094 224.761719 L 121.746094 227.097656 C 127.636719 227.164062 130.421875 223.691406 130.421875 220.1875 C 130.421875 215.710938 126.734375 214.371094 122.414062 213.804688 Z M 112.835938 224.527344 C 115.179688 226.160156 117.996094 226.996094 121.109375 227.097656 L 121.109375 224.761719 C 118.832031 224.695312 116.117188 223.890625 114.109375 222.519531 C 113.9375 222.421875 113.839844 222.390625 113.738281 222.390625 C 113.574219 222.390625 113.472656 222.492188 113.335938 222.722656 L 112.699219 223.789062 C 112.5 224.160156 112.5 224.324219 112.835938 224.527344 Z M 121.875 205.320312 C 124.289062 205.320312 126.46875 206.15625 128.511719 207.527344 C 128.644531 207.625 128.746094 207.660156 128.8125 207.660156 C 128.980469 207.660156 129.113281 207.527344 129.246094 207.289062 L 129.882812 206.253906 C 130.019531 205.921875 130.085938 205.722656 129.71875 205.519531 C 127.371094 204.085938 125.125 203.085938 121.875 202.984375 Z M 121.875 205.320312 " fill-opacity="1" fill-rule="nonzero"/>
  </g>
  <path fill="#ffffff" d="M 145.222656 226.296875 C 145.523438 226.128906 145.558594 225.996094 145.460938 225.660156 L 145.257812 224.589844 C 145.191406 224.292969 145.089844 224.191406 144.953125 224.191406 C 144.886719 224.191406 144.753906 224.226562 144.585938 224.324219 C 143.75 224.761719 143.214844 224.824219 142.277344 224.824219 C 139.597656 224.824219 138.425781 223.390625 138.425781 219.480469 L 138.425781 212.4375 L 135.945312 212.4375 L 135.945312 219.683594 C 135.945312 224.324219 137.589844 227.097656 142.011719 227.097656 C 142.441406 227.097656 143.886719 227.097656 145.222656 226.296875 Z M 144.988281 210.265625 C 144.988281 209.832031 144.855469 209.730469 144.488281 209.730469 L 138.425781 209.730469 L 138.425781 206.289062 C 138.425781 205.890625 138.324219 205.753906 137.921875 205.753906 L 136.449219 205.753906 C 136.046875 205.753906 135.945312 205.890625 135.945312 206.289062 L 135.945312 209.730469 L 134.304688 209.730469 C 133.902344 209.730469 133.765625 209.832031 133.765625 210.265625 L 133.765625 211.265625 C 133.765625 211.664062 133.902344 211.800781 134.304688 211.800781 L 144.488281 211.800781 C 144.886719 211.800781 144.988281 211.664062 144.988281 211.265625 Z M 144.988281 210.265625 " fill-opacity="1" fill-rule="nonzero"/>
</svg>