<?xml version="1.0" encoding="utf-8"?>
<svg viewBox="118.062 98.871 134.352 85.539" xmlns="http://www.w3.org/2000/svg">
  <g fill="#2a2e46" fill-opacity="1">
    <g transform="translate(116.561973, 150.53183)">
      <g>
        <path d="M 12 -1.710938 C 7.351562 -1.859375 3.898438 -6.121094 3.898438 -10.5 C 3.898438 -14.851562 7.378906 -19.140625 12 -19.289062 L 12 -21.390625 C 6.089844 -21.210938 1.5 -16.289062 1.5 -10.5 C 1.5 -4.710938 6.058594 0.238281 12 0.390625 Z M 19.230469 -4.378906 C 19.109375 -4.5 19.019531 -4.558594 18.898438 -4.558594 C 18.808594 -4.558594 18.691406 -4.53125 18.570312 -4.410156 C 17.21875 -3 15.179688 -1.800781 12.570312 -1.710938 L 12.570312 0.390625 C 15.390625 0.300781 18.269531 -0.871094 20.101562 -2.699219 C 20.371094 -2.96875 20.371094 -3.121094 20.128906 -3.421875 Z M 20.101562 -18.300781 C 18.300781 -20.101562 15.359375 -21.300781 12.570312 -21.390625 L 12.570312 -19.289062 C 15.121094 -19.199219 17.25 -18 18.511719 -16.648438 C 18.628906 -16.53125 18.75 -16.46875 18.839844 -16.46875 C 18.960938 -16.46875 19.078125 -16.53125 19.199219 -16.679688 L 20.070312 -17.640625 C 20.308594 -17.910156 20.339844 -18.058594 20.101562 -18.300781 Z M 20.101562 -18.300781 "/>
      </g>
    </g>
  </g>
  <g fill="#2a2e46" fill-opacity="1">
    <g transform="translate(209.511627, 150.53183)">
      <g>
        <path d="M 5.21875 -14.640625 C 4.859375 -15.148438 4.738281 -15.269531 4.171875 -15.269531 L 3.421875 -15.269531 C 3.089844 -15.269531 2.96875 -15.148438 2.96875 -14.789062 L 2.96875 -0.480469 C 2.96875 -0.121094 3.089844 0 3.421875 0 L 4.769531 0 C 5.101562 0 5.21875 -0.121094 5.21875 -0.480469 Z M 5.789062 -10.441406 C 6.839844 -12.511719 8.789062 -13.378906 10.980469 -13.378906 C 11.339844 -13.378906 11.429688 -13.46875 11.519531 -13.828125 L 11.699219 -15.179688 C 11.761719 -15.480469 11.699219 -15.601562 11.28125 -15.601562 C 9.089844 -15.601562 7.109375 -14.910156 5.789062 -13.078125 Z M 5.789062 -10.441406 "/>
      </g>
    </g>
  </g>
  <g fill="#2a2e46" fill-opacity="1">
    <g transform="translate(221.931613, 150.53183)">
      <g>
        <path d="M 11.640625 -0.390625 C 11.910156 -0.539062 11.941406 -0.660156 11.851562 -0.960938 L 11.671875 -1.921875 C 11.609375 -2.191406 11.519531 -2.28125 11.398438 -2.28125 C 11.339844 -2.28125 11.21875 -2.25 11.070312 -2.160156 C 10.320312 -1.769531 9.839844 -1.710938 9 -1.710938 C 6.601562 -1.710938 5.550781 -3 5.550781 -6.511719 L 5.550781 -12.839844 L 3.328125 -12.839844 L 3.328125 -6.328125 C 3.328125 -2.160156 4.800781 0.328125 8.761719 0.328125 C 9.148438 0.328125 10.441406 0.328125 11.640625 -0.390625 Z M 11.429688 -14.789062 C 11.429688 -15.179688 11.308594 -15.269531 10.980469 -15.269531 L 5.550781 -15.269531 L 5.550781 -18.359375 C 5.550781 -18.71875 5.460938 -18.839844 5.101562 -18.839844 L 3.78125 -18.839844 C 3.421875 -18.839844 3.328125 -18.71875 3.328125 -18.359375 L 3.328125 -15.269531 L 1.859375 -15.269531 C 1.5 -15.269531 1.378906 -15.179688 1.378906 -14.789062 L 1.378906 -13.890625 C 1.378906 -13.53125 1.5 -13.410156 1.859375 -13.410156 L 10.980469 -13.410156 C 11.339844 -13.410156 11.429688 -13.53125 11.429688 -13.890625 Z M 11.429688 -14.789062 "/>
      </g>
    </g>
  </g>
  <g fill="#2a2e46" fill-opacity="1">
    <g transform="translate(235.071604, 150.53183)">
      <g>
        <path d="M 9.03125 -1.679688 C 6.03125 -1.828125 3.691406 -4.46875 3.691406 -7.621094 C 3.691406 -10.890625 6.148438 -13.410156 9.03125 -13.558594 L 9.03125 -15.601562 C 4.828125 -15.449219 1.441406 -11.910156 1.441406 -7.621094 C 1.441406 -3.390625 4.800781 0.179688 9.03125 0.328125 Z M 9.628906 -13.558594 C 12.660156 -13.378906 15 -10.800781 15 -7.621094 C 15 -4.46875 12.660156 -1.859375 9.628906 -1.679688 L 9.628906 0.328125 C 13.949219 0.148438 17.21875 -3.421875 17.21875 -7.621094 C 17.21875 -11.851562 13.921875 -15.449219 9.628906 -15.601562 Z M 9.628906 -13.558594 "/>
      </g>
    </g>
  </g>
  <path fill="#2a2e46" d="M 175.828125 122.703125 L 194.808594 156.429688 L 208.21875 156.429688 L 175.828125 98.871094 L 143.5625 156.429688 L 156.976562 156.429688 Z M 175.828125 122.703125 " fill-opacity="1" fill-rule="nonzero"/>
  <path fill="#e84e0f" d="M 175.828125 148.355469 L 162.164062 172.835938 L 189.621094 172.835938 Z M 175.828125 148.355469 " fill-opacity="1" fill-rule="nonzero"/>
  <g fill="#e84e0f" fill-opacity="1">
    <g transform="translate(209.877837, 125.452653)">
      <g>
        <path d="M 1.335938 -0.316406 C 1.335938 -0.0742188 1.410156 0 1.648438 0 L 2.835938 0 C 3.074219 0 3.148438 -0.0742188 3.148438 -0.316406 L 3.148438 -10.183594 C 3.148438 -10.425781 3.089844 -10.5 2.835938 -10.5 L 1.648438 -10.5 C 1.410156 -10.5 1.335938 -10.425781 1.335938 -10.183594 Z M 1.335938 -0.316406 "/>
      </g>
    </g>
  </g>
  <g fill="#e84e0f" fill-opacity="1">
    <g transform="translate(214.362833, 125.452653)">
      <g>
        <path d="M 5.371094 -8.984375 C 7.546875 -8.984375 8.851562 -7.214844 8.851562 -5.25 C 8.851562 -3.300781 7.546875 -1.515625 5.371094 -1.515625 L 3.375 -1.515625 L 3.375 0 L 5.386719 0 C 8.339844 0 10.679688 -2.265625 10.679688 -5.25 C 10.679688 -8.234375 8.339844 -10.5 5.386719 -10.5 L 3.375 -10.5 L 3.375 -8.984375 Z M 3.121094 0 L 3.121094 -10.5 L 1.621094 -10.5 C 1.378906 -10.5 1.304688 -10.425781 1.304688 -10.183594 L 1.304688 -0.316406 C 1.304688 -0.0742188 1.378906 0 1.621094 0 Z M 3.121094 0 "/>
      </g>
    </g>
  </g>
  <g fill="#2a2e46" fill-opacity="1">
    <g transform="translate(225.721586, 125.452653)">
      <g>
        <path d="M 7.53125 -1.453125 C 7.484375 -1.515625 7.441406 -1.546875 7.394531 -1.546875 C 7.351562 -1.546875 7.304688 -1.515625 7.246094 -1.46875 C 6.539062 -0.929688 5.578125 -0.660156 4.785156 -0.660156 C 3.074219 -0.660156 1.695312 -2.039062 1.695312 -3.691406 L 1.695312 -3.929688 C 1.695312 -5.488281 2.878906 -6.886719 4.46875 -7.003906 L 4.46875 -7.800781 C 2.371094 -7.710938 0.734375 -5.894531 0.734375 -3.808594 C 0.734375 -1.621094 2.476562 0.164062 4.738281 0.164062 C 5.835938 0.164062 7.066406 -0.195312 7.753906 -0.886719 C 7.859375 -0.976562 7.859375 -1.066406 7.769531 -1.183594 Z M 8.371094 -3.675781 C 8.371094 -5.863281 7.019531 -7.738281 4.769531 -7.800781 L 4.769531 -7.003906 C 6.40625 -6.914062 7.378906 -5.476562 7.410156 -4.140625 L 2.023438 -4.140625 C 1.964844 -3.960938 1.964844 -3.644531 2.023438 -3.464844 L 8.175781 -3.464844 C 8.339844 -3.464844 8.371094 -3.523438 8.371094 -3.675781 Z M 6 -10.800781 C 5.953125 -10.875 5.910156 -10.90625 5.851562 -10.90625 C 5.820312 -10.90625 5.789062 -10.890625 5.746094 -10.84375 L 3.871094 -8.878906 C 3.734375 -8.746094 3.796875 -8.671875 3.914062 -8.671875 L 4.410156 -8.671875 C 4.546875 -8.671875 4.664062 -8.714844 4.753906 -8.804688 L 6.210938 -10.171875 C 6.300781 -10.261719 6.300781 -10.320312 6.238281 -10.425781 Z M 6 -10.800781 "/>
      </g>
    </g>
  </g>
  <g fill="#2a2e46" fill-opacity="1">
    <g transform="translate(234.75158, 125.452653)">
      <g>
        <path d="M 6.433594 -0.195312 C 6.496094 -0.0742188 6.570312 0 6.691406 0 L 7.171875 0 C 7.320312 0 7.363281 -0.0585938 7.363281 -0.210938 L 7.363281 -4.214844 C 7.363281 -6.71875 6.613281 -7.800781 4.214844 -7.800781 C 3.046875 -7.800781 1.828125 -7.574219 1.648438 -7.53125 C 1.484375 -7.484375 1.441406 -7.410156 1.484375 -7.261719 L 1.574219 -6.914062 C 1.605469 -6.78125 1.636719 -6.703125 1.738281 -6.703125 C 1.753906 -6.703125 1.785156 -6.703125 1.828125 -6.71875 C 2.414062 -6.839844 3.195312 -6.976562 4.183594 -6.976562 C 5.835938 -6.976562 6.433594 -6.226562 6.433594 -4.183594 Z M 6.148438 -4.304688 C 5.476562 -4.558594 4.636719 -4.753906 3.929688 -4.753906 C 2.023438 -4.753906 0.808594 -3.960938 0.808594 -2.308594 C 0.808594 -0.734375 2.023438 0.164062 3.496094 0.164062 C 4.378906 0.164062 5.398438 -0.136719 6.148438 -0.886719 L 6.148438 -1.726562 C 5.609375 -1.109375 4.664062 -0.585938 3.765625 -0.585938 C 2.488281 -0.585938 1.738281 -1.273438 1.738281 -2.308594 C 1.738281 -3.449219 2.578125 -4.035156 4.109375 -4.035156 C 4.84375 -4.035156 5.503906 -3.839844 6.148438 -3.570312 Z M 6.148438 -4.304688 "/>
      </g>
    </g>
  </g>
  <g fill="#e84e0f" fill-opacity="1">
    <g transform="translate(243.217679, 125.452653)">
      <g>
        <path d="M 3.121094 -10.183594 C 3.121094 -10.425781 3.046875 -10.5 2.804688 -10.5 L 1.621094 -10.5 C 1.378906 -10.5 1.304688 -10.425781 1.304688 -10.183594 L 1.304688 -0.316406 C 1.304688 -0.0742188 1.378906 0 1.621094 0 L 3.121094 0 Z M 7.769531 0 C 8.011719 0 8.085938 -0.0742188 8.085938 -0.316406 L 8.085938 -1.230469 C 8.085938 -1.484375 8.011719 -1.546875 7.769531 -1.546875 L 3.375 -1.546875 L 3.375 0 Z M 7.769531 0 "/>
      </g>
    </g>
  </g>
  <g fill="#2a2e46" fill-opacity="1">
    <g transform="translate(201.501862, 176.999988)">
      <g>
        <path d="M 13.921875 -0.839844 C 13.921875 2.761719 12.71875 5.398438 8.851562 5.398438 C 6.269531 5.398438 4.710938 4.710938 3.78125 4.378906 C 3.660156 4.320312 3.601562 4.289062 3.511719 4.289062 C 3.390625 4.289062 3.328125 4.410156 3.269531 4.648438 L 2.96875 5.789062 C 2.878906 6.121094 2.941406 6.210938 3.238281 6.328125 C 3.871094 6.570312 5.910156 7.410156 9.179688 7.410156 C 13.828125 7.410156 16.171875 4.679688 16.171875 -1.078125 L 16.171875 -14.789062 C 16.171875 -15.148438 16.050781 -15.269531 15.71875 -15.269531 L 14.671875 -15.269531 C 14.339844 -15.269531 14.070312 -15.058594 13.921875 -14.730469 Z M 13.351562 -4.859375 C 12.359375 -2.671875 10.53125 -1.710938 8.820312 -1.710938 C 5.671875 -1.710938 3.691406 -4.558594 3.691406 -7.621094 C 3.691406 -10.949219 5.671875 -13.589844 8.820312 -13.589844 C 10.410156 -13.589844 12.238281 -12.78125 13.351562 -10.441406 L 13.351562 -13.261719 C 12.300781 -14.609375 10.53125 -15.601562 8.371094 -15.601562 C 4.171875 -15.601562 1.441406 -11.96875 1.441406 -7.621094 C 1.441406 -3.238281 4.140625 0.328125 8.371094 0.328125 C 10.648438 0.328125 12.300781 -0.71875 13.351562 -2.160156 Z M 13.351562 -4.859375 "/>
      </g>
    </g>
  </g>
  <g fill="#2a2e46" fill-opacity="1">
    <g transform="translate(220.491844, 176.999988)">
      <g>
        <path d="M 14.910156 -3.121094 C 14.820312 -3.238281 14.730469 -3.300781 14.609375 -3.300781 C 14.519531 -3.300781 14.398438 -3.238281 14.25 -3.148438 C 12.808594 -2.101562 10.980469 -1.648438 9.539062 -1.648438 C 6.300781 -1.648438 3.75 -4.230469 3.75 -7.410156 L 3.75 -7.828125 C 3.75 -10.859375 5.941406 -13.46875 8.910156 -13.710938 L 8.910156 -15.601562 C 4.710938 -15.421875 1.441406 -11.789062 1.441406 -7.621094 C 1.441406 -3.238281 4.921875 0.328125 9.449219 0.328125 C 11.640625 0.328125 14.101562 -0.390625 15.480469 -1.769531 C 15.71875 -1.980469 15.691406 -2.160156 15.480469 -2.429688 Z M 16.710938 -7.320312 C 16.710938 -11.699219 14.070312 -15.480469 9.511719 -15.601562 L 9.511719 -13.710938 C 12.570312 -13.53125 14.308594 -10.828125 14.398438 -8.398438 L 4.378906 -8.398438 C 4.261719 -7.949219 4.261719 -7.261719 4.378906 -6.839844 L 16.261719 -6.839844 C 16.648438 -6.839844 16.710938 -6.960938 16.710938 -7.320312 Z M 16.710938 -7.320312 "/>
      </g>
    </g>
  </g>
  <g fill="#2a2e46" fill-opacity="1">
    <g transform="translate(238.491832, 176.999988)">
      <g>
        <path d="M 7.53125 -6.691406 C 10.261719 -6.300781 11.761719 -5.609375 11.761719 -4.289062 C 11.761719 -2.820312 10.621094 -1.53125 7.828125 -1.5 L 7.828125 0.328125 C 11.699219 0.328125 13.921875 -1.710938 13.921875 -4.410156 C 13.921875 -7.320312 11.039062 -8.28125 8.070312 -8.699219 C 5.339844 -9.089844 3.839844 -9.390625 3.839844 -11.039062 C 3.839844 -13.199219 5.851562 -13.769531 7.648438 -13.769531 L 7.648438 -15.601562 C 4.679688 -15.601562 1.710938 -14.339844 1.710938 -10.921875 C 1.710938 -7.769531 4.558594 -7.078125 7.53125 -6.691406 Z M 1.589844 -1.589844 C 3.511719 -0.300781 5.640625 0.238281 7.261719 0.328125 L 7.261719 -1.5 C 5.429688 -1.589844 3.75 -2.339844 2.578125 -3.179688 C 2.460938 -3.269531 2.339844 -3.328125 2.25 -3.328125 C 2.101562 -3.328125 2.011719 -3.179688 1.921875 -3 L 1.5 -2.25 C 1.320312 -1.921875 1.320312 -1.769531 1.589844 -1.589844 Z M 12.300781 -12.328125 C 12.421875 -12.238281 12.511719 -12.210938 12.601562 -12.210938 C 12.75 -12.210938 12.871094 -12.328125 12.960938 -12.539062 L 13.351562 -13.261719 C 13.5 -13.53125 13.558594 -13.710938 13.199219 -13.921875 C 11.460938 -15 9.660156 -15.480469 8.21875 -15.570312 L 8.21875 -13.769531 C 9.570312 -13.710938 10.921875 -13.199219 12.300781 -12.328125 Z M 12.300781 -12.328125 "/>
      </g>
    </g>
  </g>
  <g fill="#2a2e46" fill-opacity="1">
    <g transform="translate(116.561973, 177.000063)">
      <g>
        <path d="M 10.378906 -11.609375 C 7.078125 -12.03125 4.289062 -12.660156 4.289062 -15.121094 C 4.289062 -16.621094 5.25 -19.078125 9.328125 -19.199219 L 9.328125 -21.328125 C 3.691406 -21.269531 1.980469 -17.308594 1.980469 -15.058594 C 1.980469 -11.070312 5.789062 -10.078125 9.058594 -9.628906 C 12.988281 -9.089844 15.238281 -8.28125 15.238281 -5.789062 C 15.238281 -2.851562 12.691406 -1.828125 9.78125 -1.769531 L 9.78125 0.328125 C 15.058594 0.390625 17.550781 -2.730469 17.550781 -5.878906 C 17.550781 -9.898438 14.25 -11.101562 10.378906 -11.609375 Z M 1.800781 -1.980469 C 3.898438 -0.511719 6.421875 0.238281 9.210938 0.328125 L 9.210938 -1.769531 C 7.171875 -1.828125 4.738281 -2.550781 2.941406 -3.78125 C 2.789062 -3.871094 2.699219 -3.898438 2.609375 -3.898438 C 2.460938 -3.898438 2.371094 -3.808594 2.25 -3.601562 L 1.679688 -2.640625 C 1.5 -2.308594 1.5 -2.160156 1.800781 -1.980469 Z M 9.898438 -19.230469 C 12.058594 -19.230469 14.011719 -18.480469 15.839844 -17.25 C 15.960938 -17.160156 16.050781 -17.128906 16.109375 -17.128906 C 16.261719 -17.128906 16.378906 -17.25 16.5 -17.460938 L 17.070312 -18.390625 C 17.191406 -18.691406 17.25 -18.871094 16.921875 -19.050781 C 14.820312 -20.339844 12.808594 -21.238281 9.898438 -21.328125 Z M 9.898438 -19.230469 "/>
      </g>
    </g>
  </g>
  <g fill="#2a2e46" fill-opacity="1">
    <g transform="translate(135.731958, 177.000063)">
      <g>
        <path d="M 11.640625 -0.390625 C 11.910156 -0.539062 11.941406 -0.660156 11.851562 -0.960938 L 11.671875 -1.921875 C 11.609375 -2.191406 11.519531 -2.28125 11.398438 -2.28125 C 11.339844 -2.28125 11.21875 -2.25 11.070312 -2.160156 C 10.320312 -1.769531 9.839844 -1.710938 9 -1.710938 C 6.601562 -1.710938 5.550781 -3 5.550781 -6.511719 L 5.550781 -12.839844 L 3.328125 -12.839844 L 3.328125 -6.328125 C 3.328125 -2.160156 4.800781 0.328125 8.761719 0.328125 C 9.148438 0.328125 10.441406 0.328125 11.640625 -0.390625 Z M 11.429688 -14.789062 C 11.429688 -15.179688 11.308594 -15.269531 10.980469 -15.269531 L 5.550781 -15.269531 L 5.550781 -18.359375 C 5.550781 -18.71875 5.460938 -18.839844 5.101562 -18.839844 L 3.78125 -18.839844 C 3.421875 -18.839844 3.328125 -18.71875 3.328125 -18.359375 L 3.328125 -15.269531 L 1.859375 -15.269531 C 1.5 -15.269531 1.378906 -15.179688 1.378906 -14.789062 L 1.378906 -13.890625 C 1.378906 -13.53125 1.5 -13.410156 1.859375 -13.410156 L 10.980469 -13.410156 C 11.339844 -13.410156 11.429688 -13.53125 11.429688 -13.890625 Z M 11.429688 -14.789062 "/>
      </g>
    </g>
  </g>
</svg>